<svg preserveAspectRatio="xMidYMid meet" viewBox="79.76811594202898 352.64 246.72463768115944 233.856" xmlns="http://www.w3.org/2000/svg" version="1.0" style="max-height: 500px" width="246.72463768115944" height="233.856">

<g stroke="none" fill="#000000" transform="translate(0.000000,928.000000) scale(0.100000,-0.100000)">
<path d="M2078 5540 c-250 -45 -490 -238 -563 -452 -22 -66 -23 -63 64 -131&#10;l59 -47 11 46 c23 92 73 176 146 249 119 119 257 176 430 177 176 2 330 -54&#10;439 -159 115 -110 168 -226 186 -403 9 -90 13 -101 85 -242 52 -103 72 -150&#10;63 -153 -94 -33 -114 -43 -125 -65 -7 -14 -15 -78 -19 -143 -8 -162 -7 -160&#10;-166 -168 -145 -6 -191 -24 -235 -91 -26 -39 -28 -50 -31 -165 l-4 -123 81 0&#10;81 0 0 86 c0 122 2 124 108 124 226 0 317 78 329 283 l6 94 51 22 c83 35 116&#10;72 116 128 0 16 -38 105 -83 199 -79 158 -85 176 -96 267 -41 322 -238 562&#10;-531 647 -83 25 -315 36 -402 20z"/>
<path d="M956 5086 c-30 -28 -36 -40 -36 -75 0 -56 19 -90 77 -137 26 -21 127&#10;-107 224 -189 96 -83 188 -160 202 -172 15 -11 27 -25 26 -29 0 -5 -113 -103&#10;-250 -219 -138 -115 -257 -222 -264 -237 -18 -33 -19 -95 -1 -126 17 -32 65&#10;-62 98 -62 45 0 73 16 160 91 186 161 425 367 475 409 69 58 93 95 93 145 0&#10;65 1 64 -260 287 -444 378 -403 348 -461 348 -40 0 -53 -5 -83 -34z"/>
<path d="M1490 3755 l0 -85 380 0 380 0 0 85 0 85 -380 0 -380 0 0 -85z"/>
</g>
</svg>