<svg width="120" height="120" viewBox="0 0 120 120" fill="none" xmlns="http://www.w3.org/2000/svg">
  <!-- Rocket Icon -->
  <ellipse cx="60" cy="95" rx="25" ry="8" fill="#566246" opacity="0.2"/>
  
  <!-- Rocket body -->
  <path d="M 60 25 L 50 70 L 50 85 Q 50 90 55 90 L 65 90 Q 70 90 70 85 L 70 70 Z" fill="#566246"/>
  
  <!-- Rocket window -->
  <circle cx="60" cy="50" r="8" fill="#D8DAD3"/>
  <circle cx="60" cy="50" r="5" fill="#566246" opacity="0.3"/>
  
  <!-- Rocket fins -->
  <path d="M 50 70 L 40 75 L 45 85 L 50 80 Z" fill="#566246"/>
  <path d="M 70 70 L 80 75 L 75 85 L 70 80 Z" fill="#566246"/>
  
  <!-- Rocket top -->
  <path d="M 60 25 L 50 40 L 70 40 Z" fill="#566246"/>
  
  <!-- Flame -->
  <path d="M 52 90 Q 52 100 60 105 Q 68 100 68 90" fill="#FF6B35" opacity="0.7"/>
  <path d="M 55 90 Q 55 97 60 100 Q 65 97 65 90" fill="#FFA500" opacity="0.8"/>
</svg>
